# xmcd CD database file
#
# Track frame offsets:
#	150
#	41690
#	96182
#	116420
#	140800
#	153107
#
# Disc length: 2464 seconds
#
# Revision: 2
# Processed by: cddbd v1.5.1PL2 Copyright (c) Steve Scherf et al.
# Submitted via: CDex 1.60beta1-cs1
#
DISCID=49099e06
DTITLE=Kenny Dorham - Jazz Contrasts
DYEAR=1957
DGENRE=Jazz
TTITLE0=Falling In Love With Love
TTITLE1=I'll Remember April
TTITLE2=Larue
TTITLE3=My Old Flame
TTITLE4=But Beautiful
TTITLE5=La Villa
EXTD=w/ Sonny Rollins: tenor \nHank Jones: piano\nOscar Pettiford: bass\nMax Roach: drums\nBetty Glamman: harp (tracks 3, 4  and 5]\n\nA 1992  OJC/Riverside reissue of a 1957 date.\n YEAR: 1957
EXTT0=
EXTT1=
EXTT2=
EXTT3=
EXTT4=
EXTT5=
PLAYORDER=
